<svg width="1100" height="497" viewBox="0 0 1100 497" fill="none" xmlns="http://www.w3.org/2000/svg">
<path d="M368.751 31.9926C311.756 0.492348 125.818 -20.5439 66.7521 31.9948C7.68575 84.5336 -15.2515 343.493 25.7505 406.993C66.7525 470.493 457.253 470.493 457.253 368.493C457.253 266.493 256.647 311.492 248.251 242.993C239.855 174.493 530.619 121.456 368.751 31.9926Z" fill="url(#paint0_linear_2759_2467)" fill-opacity="0.8"/>
<path d="M5.00195 70.1649C5.00195 70.1649 132.002 20.1648 148.502 26.1649C165.002 32.165 173.502 138.665 173.502 138.665C173.502 138.665 315.002 -2.83694 333.002 8.66505C351.002 20.167 378.502 82.667 378.502 82.667C378.502 82.667 407.002 149.667 401.502 162.167C396.002 174.667 254.502 230.167 254.502 230.167C254.502 230.167 191.753 254.822 197.002 226.667C202.502 197.167 255.43 229.802 255.43 229.802C255.43 229.802 457.002 313.667 457.002 335.167C457.002 356.667 361.002 404.167 361.002 404.167C361.002 404.167 282.002 446.072 261.502 444.667C241.002 443.262 175.502 288.667 175.502 288.667C175.502 288.667 190.002 429.667 173.502 441.167C157.002 452.667 92.0176 451.167 92.0176 451.167C92.0176 451.167 27.5306 452.167 19.5176 444.667C11.5046 437.167 32.2302 306.152 30.0176 241.167C27.8049 176.182 5.00195 94.667 5.00195 94.667" stroke="#494949" stroke-width="10" stroke-linecap="round"/>
<path d="M528.169 314.826C563.244 314.826 580.781 334.235 580.781 373.054C580.781 375.821 580.7 378.71 580.537 381.721H483.247C483.247 415.249 500.988 432.014 536.47 432.014C551.037 432.014 563.976 429.979 575.288 425.91V436.896C563.976 440.965 551.037 443 536.47 443C492.443 443 470.43 421.149 470.43 377.448C470.43 335.7 489.676 314.826 528.169 314.826ZM483.247 370.246H568.452C567.964 340.461 554.536 325.568 528.169 325.568C499.686 325.568 484.712 340.461 483.247 370.246ZM613.252 294.074H622.285L624.604 314.826H663.057V325.812H625.703V406.745C625.703 423.591 631.888 432.014 644.258 432.014H663.057V443H644.502C623.669 443 613.252 431.485 613.252 408.454V294.074ZM697.114 378.425C697.114 414.965 712.78 433.234 744.111 433.234C775.443 433.234 791.108 414.965 791.108 378.425C791.108 342.536 775.443 324.592 744.111 324.592C712.78 324.592 697.114 342.536 697.114 378.425ZM684.297 378.913C684.297 335.375 704.235 313.605 744.111 313.605C783.988 313.605 803.926 335.375 803.926 378.913C803.926 422.37 783.988 444.099 744.111 444.099C704.398 444.099 684.46 422.37 684.297 378.913ZM836.885 443V314.826H846.04L847.627 331.184C863.984 320.279 880.016 314.826 895.723 314.826C926.891 314.826 942.476 328.295 942.476 355.231V443H929.658V354.865C929.658 335.822 918.143 326.301 895.112 326.301C879.731 326.301 864.595 331.713 849.702 342.536V443H836.885ZM1033.3 314.826C1068.37 314.826 1085.91 334.235 1085.91 373.054C1085.91 375.821 1085.83 378.71 1085.66 381.721H988.374C988.374 415.249 1006.11 432.014 1041.6 432.014C1056.16 432.014 1069.1 429.979 1080.42 425.91V436.896C1069.1 440.965 1056.16 443 1041.6 443C997.57 443 975.557 421.149 975.557 377.448C975.557 335.7 994.803 314.826 1033.3 314.826ZM988.374 370.246H1073.58C1073.09 340.461 1059.66 325.568 1033.3 325.568C1004.81 325.568 989.839 340.461 988.374 370.246Z" fill="#494949"/>
<defs>
<linearGradient id="paint0_linear_2759_2467" x1="84.3184" y1="12.9561" x2="400.318" y2="424.456" gradientUnits="userSpaceOnUse">
<stop stop-color="#B5FFBD"/>
<stop offset="0.495192" stop-color="#7ABDFF"/>
<stop offset="1" stop-color="#CF81FF"/>
</linearGradient>
</defs>
</svg>
